HIERARCHY
ROOT Hips
{
	OFFSET -0.001795 -0.223333 0.028219
	CHANNELS 6 Xposition Yposition Zposition Zrotation Yrotation Xrotation
	JOINT LeftUpLeg
	{
		OFFSET 0.069520 -0.091406 -0.006815
		CHANNELS 3 Zrotation Yrotation Xrotation
		JOINT LeftLeg
		{
			OFFSET 0.034277 -0.375199 -0.004496
			CHANNELS 3 Zrotation Yrotation Xrotation
			JOINT LeftFoot
			{
				OFFSET -0.013596 -0.397961 -0.043693
				CHANNELS 3 Zrotation Yrotation Xrotation
				JOINT LeftToe
				{
					OFFSET 0.026358 -0.055791 0.119288
					CHANNELS 3 Zrotation Yrotation Xrotation
					End Site
					{
						OFFSET 0.000000 0.000000 0.000000
					}
				}
			}
		}
	}
	JOINT RightUpLeg
	{
		OFFSET -0.067670 -0.090522 -0.004320
		CHANNELS 3 Zrotation Yrotation Xrotation
		JOINT RightLeg
		{
			OFFSET -0.038290 -0.382569 -0.008850
			CHANNELS 3 Zrotation Yrotation Xrotation
			JOINT RightFoot
			{
				OFFSET 0.015774 -0.398415 -0.042312
				CHANNELS 3 Zrotation Yrotation Xrotation
				JOINT RightToe
				{
					OFFSET -0.025372 -0.048144 0.123348
					CHANNELS 3 Zrotation Yrotation Xrotation
					End Site
					{
						OFFSET 0.000000 0.000000 0.000000
					}
				}
			}
		}
	}
	JOINT Spine
	{
		OFFSET -0.002533 0.108963 -0.026696
		CHANNELS 3 Zrotation Yrotation Xrotation
		JOINT Spine1
		{
			OFFSET 0.005487 0.135180 0.001092
			CHANNELS 3 Zrotation Yrotation Xrotation
			JOINT Spine2
			{
				OFFSET 0.001457 0.052922 0.025425
				CHANNELS 3 Zrotation Yrotation Xrotation
				JOINT Neck
				{
					OFFSET -0.002778 0.213870 -0.042857
					CHANNELS 3 Zrotation Yrotation Xrotation
					JOINT Head
					{
						OFFSET 0.005152 0.064970 0.051349
						CHANNELS 3 Zrotation Yrotation Xrotation
						End Site
						{
							OFFSET 0.000000 0.000000 0.000000
						}
					}
				}
				JOINT LeftShoulder
				{
					OFFSET 0.078845 0.121749 -0.034090
					CHANNELS 3 Zrotation Yrotation Xrotation
					JOINT LeftArm
					{
						OFFSET 0.090977 0.030469 -0.008868
						CHANNELS 3 Zrotation Yrotation Xrotation
						JOINT LeftForeArm
						{
							OFFSET 0.259612 -0.012772 -0.027456
							CHANNELS 3 Zrotation Yrotation Xrotation
							JOINT LeftHand
							{
								OFFSET 0.249234 0.008986 -0.001171
								CHANNELS 3 Zrotation Yrotation Xrotation
								End Site
								{
									OFFSET 0.000000 0.000000 0.000000
								}
							}
						}
					}
				}
				JOINT RightShoulder
				{
					OFFSET -0.081759 0.118833 -0.038615
					CHANNELS 3 Zrotation Yrotation Xrotation
					JOINT RightArm
					{
						OFFSET -0.096012 0.032551 -0.009143
						CHANNELS 3 Zrotation Yrotation Xrotation
						JOINT RightForeArm
						{
							OFFSET -0.253742 -0.013329 -0.021401
							CHANNELS 3 Zrotation Yrotation Xrotation
							JOINT RightHand
							{
								OFFSET -0.255298 0.007772 -0.005559
								CHANNELS 3 Zrotation Yrotation Xrotation
								End Site
								{
									OFFSET 0.000000 0.000000 0.000000
								}
							}
						}
					}
				}
			}
		}
	}
}
MOTION
Frames: 10
Frame Time: 0.050000
-0.639973 0.682914 0.475566 2.311356 -7.633514 9.205068 27.221763 2.057124 -12.000945 -10.002771 7.497720 54.295500 9.196718 19.439842 -19.137624 0.000000 0.000000 0.000000 -33.261085 -7.155053 -56.821599 33.462770 -25.793741 73.086961 69.766462 31.829870 78.012856 0.000000 0.000000 0.000000 -0.557128 -0.415503 30.696695 12.015082 -1.811184 -26.398007 -4.076544 -6.419441 22.832922 -6.344828 3.451194 -41.931067 0.000000 0.000000 0.000000 -27.115521 -7.625897 7.065235 -25.531254 -35.743277 1.004689 135.933688 -49.912266 -85.039869 0.000000 0.000000 0.000000 26.938533 22.173656 8.390832 38.629536 27.225553 3.679966 -178.280681 76.651414 -175.049165 0.000000 0.000000 0.000000
-0.673266 0.719521 0.544381 2.129386 -10.474810 13.175691 21.670489 0.279352 -1.601668 -5.999660 3.360078 35.390831 10.788619 24.054995 -7.500531 0.000000 0.000000 0.000000 -33.053869 -5.229633 -53.642718 37.269441 -23.944276 63.124956 53.405404 23.568460 71.216050 0.000000 0.000000 0.000000 0.775205 -0.640930 25.542023 15.726334 -2.749337 -24.126134 -7.100581 -8.462597 19.557416 -6.267192 3.133112 -44.321351 0.000000 0.000000 0.000000 -25.734371 -2.864786 4.713607 -24.126729 -36.964240 1.146881 137.735237 -49.581190 -85.767887 0.000000 0.000000 0.000000 24.695679 20.175704 5.635415 38.865370 22.891677 2.960919 -171.366762 73.785667 -167.989542 0.000000 0.000000 0.000000
-0.717300 0.765979 0.632311 1.616486 -13.782472 15.899840 16.547341 -0.133349 5.958999 -0.117097 0.323965 23.013724 11.864839 22.440836 14.627749 0.000000 0.000000 0.000000 -29.357498 -2.413414 -52.808427 38.132369 -21.412051 58.612494 3.722578 -9.508878 49.557480 0.000000 0.000000 0.000000 1.670076 -0.726092 20.124463 15.116759 -2.511675 -24.348927 -6.447356 -8.827888 20.132687 -5.746708 2.599747 -43.453865 0.000000 0.000000 0.000000 -24.587583 3.166993 1.518613 -29.516629 -30.835430 0.547524 150.971644 -46.356753 -98.504928 0.000000 0.000000 0.000000 14.885008 17.059330 3.851159 44.251300 23.279050 2.914941 -166.212067 70.656862 -162.545763 0.000000 0.000000 0.000000
-0.772947 0.826535 0.732037 3.869453 -12.927093 15.162571 12.056119 -0.054163 7.329106 -0.375043 0.272789 22.074423 9.802730 18.674857 25.424107 0.000000 0.000000 0.000000 -23.658266 -0.382119 -40.865309 29.417714 -13.174840 53.570424 -16.333673 -35.546793 11.626534 0.000000 0.000000 0.000000 2.387609 -0.736472 12.585206 11.244939 -2.077008 -22.561244 -4.984398 -9.570318 18.924681 -6.825547 2.872500 -34.271012 0.000000 0.000000 0.000000 -20.319354 6.919043 -1.307458 -33.048573 -23.205594 -0.335942 159.541202 -44.893089 -111.584160 0.000000 0.000000 0.000000 6.188556 11.263546 2.417724 48.192688 27.128267 3.814395 -163.981447 63.849885 -157.328208 0.000000 0.000000 0.000000
-0.834034 0.896507 0.830989 3.985184 -10.870710 13.401288 7.505480 -0.009488 3.362515 -2.137107 1.098579 29.362229 8.193075 16.987222 24.147371 0.000000 0.000000 0.000000 -18.465327 0.531826 -27.603650 23.073504 -8.158885 46.125394 -15.976317 -33.474187 14.672671 0.000000 0.000000 0.000000 -1.532184 -0.082471 9.138765 13.039687 -1.777141 -26.789986 -5.653442 -8.259108 22.069397 -4.828389 2.221534 -24.997256 0.000000 0.000000 0.000000 -14.225825 11.652597 -4.704231 -27.884985 -14.218853 -2.257797 156.259986 -41.189842 -103.088752 0.000000 0.000000 0.000000 2.172924 8.009112 2.177292 36.667330 34.449722 3.720777 -154.194518 58.102149 -135.368095 0.000000 0.000000 0.000000
-0.895338 0.966207 0.923700 3.257658 -9.025184 11.244293 4.868178 -0.296202 -3.885039 -6.152916 3.879248 42.564303 7.051852 15.789691 21.098217 0.000000 0.000000 0.000000 -12.090843 0.990894 -18.825592 15.649099 -4.157819 40.882867 -6.582677 -18.836937 24.676808 0.000000 0.000000 0.000000 -4.622336 0.294958 7.895124 13.547988 -1.825298 -27.406588 -5.146505 -5.299939 23.661591 -6.014329 3.851265 -16.035744 0.000000 0.000000 0.000000 -7.423734 12.924434 -5.451145 -21.907536 -9.315859 -2.470769 146.466242 -42.245830 -90.430987 0.000000 0.000000 0.000000 -3.321831 6.353426 2.393312 23.967042 38.586323 1.715794 -140.196173 51.876181 -104.735470 0.000000 0.000000 0.000000
-0.952862 1.017487 1.010421 1.617210 -7.411446 8.319007 3.461619 -0.745183 -12.402863 -8.804884 6.499999 54.083148 7.829804 16.880791 14.400130 0.000000 0.000000 0.000000 -8.032714 1.092285 -16.383891 12.033351 -2.772668 43.435564 -3.764630 -15.015942 26.750862 0.000000 0.000000 0.000000 -8.539297 0.810418 10.431947 14.928975 -2.340964 -26.416561 -2.558798 0.120594 23.585119 -5.012184 4.070458 -13.669195 0.000000 0.000000 0.000000 -2.679118 10.549778 -4.207630 -15.790154 -9.976598 -1.769398 132.109626 -40.067174 -71.481977 0.000000 0.000000 0.000000 -4.601721 5.035677 1.897273 7.850873 35.659207 -1.496462 -120.155265 40.319076 -61.268383 0.000000 0.000000 0.000000
-1.005419 1.047408 1.098570 -0.505935 -4.340934 5.744984 2.508742 -1.092517 -16.486800 -8.263450 5.066779 55.403960 7.691467 16.463680 7.852194 0.000000 0.000000 0.000000 -6.019626 1.267278 -18.601408 10.558053 -2.673901 42.717064 -5.921065 -17.545298 25.420578 0.000000 0.000000 0.000000 -9.087041 0.936160 14.592376 14.111180 -2.321949 -26.229238 0.277186 -0.780002 23.372249 -7.578752 6.198872 -10.564433 0.000000 0.000000 0.000000 -4.978325 10.973757 -4.648873 -8.247840 -10.392790 -1.273019 122.282660 -34.078621 -53.636880 0.000000 0.000000 0.000000 -8.242884 3.225319 1.449287 -0.318003 31.758255 -2.741859 -112.039326 30.967258 -42.237443 0.000000 0.000000 0.000000
-1.054790 1.061761 1.194682 -2.554048 -1.436260 4.184160 1.880065 -1.141620 -15.255995 -5.464220 1.755855 47.197028 6.570920 14.510832 6.569907 0.000000 0.000000 0.000000 -5.674152 1.317520 -20.877788 7.870950 -1.761992 35.337140 -6.248442 -17.333685 19.507717 0.000000 0.000000 0.000000 -7.888128 0.672564 16.752938 15.198366 -2.041064 -29.800975 -1.499703 -1.564531 26.614758 -5.443146 4.762699 -9.243335 0.000000 0.000000 0.000000 -3.125641 10.263941 -4.132297 -7.842051 -14.940699 -1.326227 122.738256 -33.891707 -54.290913 0.000000 0.000000 0.000000 -10.187074 -0.091233 0.461301 -1.912656 25.763831 -2.308116 -105.563068 25.912694 -32.140244 0.000000 0.000000 0.000000
-1.101258 1.052874 1.299513 -5.636945 -0.014441 2.517875 4.084860 -0.749523 -12.549421 -5.977798 1.365211 36.049208 2.791485 6.938344 3.289153 0.000000 0.000000 0.000000 -5.127151 1.378615 -21.722074 4.324388 -0.441690 22.489685 -5.481375 -15.658456 16.550379 0.000000 0.000000 0.000000 -5.794852 0.206502 15.714776 15.157700 -1.885391 -31.248311 -1.643211 -3.303439 29.549258 -6.882636 6.158343 -5.186723 0.000000 0.000000 0.000000 -1.063946 8.934629 -3.389278 -11.602897 -21.415673 -1.370953 123.879401 -36.487019 -57.412217 0.000000 0.000000 0.000000 -15.629881 -2.376843 0.183775 3.904983 20.147962 -1.452561 -106.189967 27.160554 -34.620148 0.000000 0.000000 0.000000
